<?xml version="1.0" encoding="utf-8"?>
<svg xmlns="http://www.w3.org/2000/svg" version="1.1" xmlns:xlink="http://www.w3.org/1999/xlink" id="regView" viewBox="0 0 3000 1569" style="position: absolute; height: 100%; width: 100%; left: 0; top: 0;">
  <g></g>
  <g class="hover" id="panels" fill="white" stroke="black" stroke-width="2.0" stroke-dasharray="" font-family="Arial,Helvetica,sans-serif" opacity="1.00">
    <polygon id="B-3-12" class="B-3-12" points="2291,1371 2227,1442 2140,1371" fill="Magenta" />
    <polygon id="B-3-11" class="B-3-11" points="2138,1371 2074,1445 1984,1371" fill="Magenta" />
    <polygon id="B-3-13" class="B-3-13" points="2439,1371 2376,1435 2292,1371" fill="Magenta" />
    <polygon id="B-3-3" class="B-3-3" points="841,1371 763,1433 676,1371" fill="Magenta" />
    <polygon id="B-3-2" class="B-3-2" points="674,1371 595,1432 509,1371" fill="Magenta" />
    <polygon id="B-3-1" class="B-3-1" points="507,1371 427,1431 342,1371" fill="Magenta" />
    <polygon id="B-3-6" class="B-3-6" points="1335,1371 1263,1438 1172,1371" fill="Magenta" />
    <polygon id="B-3-7" class="B-3-7" points="1499,1371 1428,1440 1336,1371" fill="Magenta" />
    <polygon id="B-3-8" class="B-3-8" points="1663,1371 1593,1442 1501,1371" fill="Magenta" />
    <polygon id="B-3-5" class="B-3-5" points="1170,1371 1097,1436 1007,1371" fill="Magenta" />
    <polygon id="B-3-4" class="B-3-4" points="1006,1371 931,1435 842,1371" fill="Magenta" />
    <polygon id="B-3-10" class="B-3-10" points="1983,1371 1917,1445 1826,1371" fill="Magenta" />
    <polygon id="B-3-9" class="B-3-9" points="1824,1371 1757,1444 1664,1371" fill="Magenta" />
    <polygon id="B-2-13" class="B-2-13" points="2314,1512 2227,1443 2291,1372 2375,1435" fill="Magenta" />
    <polygon id="B-2-14" class="B-2-14" points="2461,1480 2377,1435 2440,1371 2524,1403" fill="#FE99FF" />
    <polygon id="B-2-4" class="B-2-4" points="842,1372 930,1435 852,1496 764,1434" fill="#FE99FF" />
    <polygon id="B-2-2" class="B-2-2" points="508,1372 594,1432 514,1489 428,1432" fill="#FE99FF" />
    <polygon id="B-2-6" class="B-2-6" points="1171,1372 1262,1439 1189,1504 1098,1437" fill="#FE99FF" />
    <polygon id="B-2-7" class="B-2-7" points="1336,1372 1428,1441 1356,1509 1264,1439" fill="#FE99FF" />
    <polygon id="B-2-10" class="B-2-10" points="1825,1372 1916,1446 1849,1522 1757,1445" fill="#FE99FF" />
    <polygon id="B-2-11" class="B-2-11" points="2008,1525 1918,1446 1984,1372 2073,1446" fill="#FE99FF" />
    <polygon id="B-1-9" class="B-1-9" points="1688,1519 1848,1523 1757,1446" fill="Magenta" />
    <polygon id="B-1-10" class="B-1-10" points="1917,1447 1850,1523 2007,1526" fill="Magenta" />
    <polygon id="B-1-7" class="B-1-7" points="1357,1509 1522,1514 1429,1442" fill="Magenta" />
    <polygon id="B-1-1" class="B-1-1" points="351,1486 513,1489 427,1433" fill="Magenta" />
    <polygon id="B-1-2" class="B-1-2" points="515,1489 682,1493 595,1433" fill="Magenta" />
    <polygon id="B-1-3" class="B-1-3" points="683,1493 851,1497 763,1434" fill="Magenta" />
    <polygon id="B-1-13" class="B-1-13" points="2376,1436 2315,1513 2461,1481" fill="Magenta" />
    <polygon id="B-1-11" class="B-1-11" points="2074,1447 2009,1526 2162,1525" fill="Magenta" />
    <polygon id="B-1-12" class="B-1-12" points="2227,1443 2164,1525 2313,1513" fill="Magenta" />
    <polygon id="B-7-16" class="B-7-16" points="2778,922 2730,1023 2653,1005 2700,906" fill="#FE99FF" />
    <polygon id="B-3-16" class="B-3-16" points="2829,1138 2785,1238 2714,1234 2759,1135" fill="#FE99FF" />
    <polygon id="B-9-16" class="B-9-16" points="2619,882 2668,784 2748,805 2699,905" fill="#FE99FF" />
    <polygon id="B-8-17" class="B-8-17" points="2778,921 2700,905 2749,805 2828,821" fill="#FE99FF" />
    <polygon id="B-8-16" class="B-8-16" points="2652,1005 2571,979 2619,883 2699,906" fill="#FE99FF" />
    <polygon id="B-3-15" class="B-3-15" points="2712,1235 2662,1330 2590,1317 2641,1224" fill="#FE99FF" />
    <polygon id="B-14-17" class="B-14-17" points="2684,560 2598,533 2647,439 2734,463" fill="#FE99FF" />
    <polygon id="B-10-16" class="B-10-16" points="2585,758 2667,784 2618,882 2536,852" fill="Magenta" stroke="red" stroke-width="10" stroke-dasharray="10,5" />
    <polygon id="" class="" points="2585,758 2667,784 2618,882 2536,852" fill="none" />
    <polygon id="B-13-16" class="B-13-16" points="2683,561 2634,659 2550,632 2598,534" fill="Magenta" stroke="orange" stroke-width="10" stroke-dasharray="8,3" />
    <polygon id="" class="" points="2683,561 2634,659 2550,632 2598,534" fill="none" />
    <polygon id="B-16-17" class="B-16-17" points="2647,438 2559,412 2612,335 2699,353" fill="#F8F8F8" />
    <polygon id="B-7-15" class="B-7-15" points="2651,1006 2607,1104 2523,1072 2570,980" fill="Magenta" stroke="red" stroke-width="10" stroke-dasharray="10,5" />
    <polygon id="" class="" points="2651,1006 2607,1104 2523,1072 2570,980" fill="none" />
    <polygon id="B-17-16" class="B-17-16" points="2559,327 2611,335 2558,411" fill="Magenta" stroke="orange" stroke-width="10" stroke-dasharray="8,3" />
    <polygon id="" class="" points="2559,327 2611,335 2558,411" fill="none" />
    <polygon id="B-15-16" class="B-15-16" points="2597,533 2555,518 2558,413 2646,439" fill="Magenta" stroke="red" stroke-width="10" stroke-dasharray="10,5" />
    <polygon id="" class="" points="2597,533 2555,518 2558,413 2646,439" fill="none" />
    <polygon id="B-8-15" class="B-8-15" points="2528,962 2569,979 2522,1071" fill="Magenta" stroke="orange" stroke-width="10" stroke-dasharray="8,3" />
    <polygon id="" class="" points="2528,962 2569,979 2522,1071" fill="none" />
    <polygon id="B-11-15" class="B-11-15" points="2542,742 2584,758 2535,851" fill="Magenta" stroke="orange" stroke-width="10" stroke-dasharray="8,3" />
    <polygon id="" class="" points="2542,742 2584,758 2535,851" fill="none" />
    <polygon id="B-9-15" class="B-9-15" points="2618,883 2570,978 2528,960 2535,853" fill="Magenta" stroke="orange" stroke-width="10" stroke-dasharray="8,3" />
    <polygon id="" class="" points="2618,883 2570,978 2528,960 2535,853" fill="none" />
    <polygon id="B-6-15" class="B-6-15" points="2522,1073 2606,1104 2564,1200 2518,1180" fill="Magenta" stroke="orange" stroke-width="10" stroke-dasharray="8,3" />
    <polygon id="" class="" points="2522,1073 2606,1104 2564,1200 2518,1180" fill="none" />
    <polygon id="B-5-14" class="B-5-14" points="2564,1201 2516,1292 2518,1181" fill="Magenta" stroke="orange" stroke-width="10" stroke-dasharray="8,3" />
    <polygon id="" class="" points="2564,1201 2516,1292 2518,1181" fill="none" />
    <polygon id="B-12-16" class="B-12-16" points="2584,757 2542,740 2549,633 2633,660" fill="Magenta" stroke="orange" stroke-width="10" stroke-dasharray="8,3" />
    <polygon id="" class="" points="2584,757 2542,740 2549,633 2633,660" fill="none" />
    <polygon id="B-14-16" class="B-14-16" points="2555,519 2597,534 2549,631" fill="Magenta" stroke="red" stroke-width="10" stroke-dasharray="10,5" />
    <polygon id="" class="" points="2555,519 2597,534 2549,631" fill="none" />
    <polygon id="B-21-17" class="B-21-17" points="2685,144 2633,195 2548,195 2599,150" fill="Magenta" />
    <polygon id="B-19-17" class="B-19-17" points="2580,255 2633,196 2719,197 2666,263" fill="Magenta" />
    <polygon id="B-2-17" class="B-2-17" points="2859,1239 2786,1238 2830,1138 2899,1136" fill="#FE99FF" />
    <polygon id="B-3-17" class="B-3-17" points="2830,1137 2879,1038 2952,1039 2899,1135" fill="#FE99FF" />
    <polygon id="B-7-17" class="B-7-17" points="2906,835 2855,933 2779,922 2828,821" fill="#FE99FF" />
    <polygon id="B-11-17" class="B-11-17" points="2850,602 2799,702 2718,683 2768,583" fill="#FE99FF" />
    <polygon id="B-15-17" class="B-15-17" points="2648,438 2700,353 2786,370 2734,462" fill="#FE99FF" />
    <polygon id="B-2-18" class="B-2-18" points="2900,1135 2972,1125 2953,1039" fill="Magenta" />
    <polygon id="B-1-17" class="B-1-17" points="2860,1239 2972,1127 2899,1136" fill="Magenta" />
    <polygon id="B-14-18" class="B-14-18" points="2735,463 2820,482 2788,370" fill="Magenta" />
    <polygon id="B-12-18" class="B-12-18" points="2769,582 2851,601 2820,483" fill="Magenta" />
    <polygon id="B-1-14" class="B-1-14" points="2462,1481 2604,1423 2525,1403" fill="Magenta" />
    <polygon id="B-1-15" class="B-1-15" points="2605,1422 2737,1341 2662,1331" fill="Magenta" />
    <polygon id="B-8-18" class="B-8-18" points="2906,834 2880,721 2829,820" fill="Magenta" />
    <polygon id="B-18-18" class="B-18-18" points="2667,263 2753,271 2720,197" fill="Magenta" />
    <polygon id="B-16-18" class="B-16-18" points="2787,369 2754,273 2700,352" fill="Magenta" />
    <polygon id="B-10-18" class="B-10-18" points="2800,702 2879,720 2851,602" fill="Magenta" />
    <polygon id="B-6-18" class="B-6-18" points="2856,933 2931,941 2907,835" fill="Magenta" />
    <polygon id="B-1-16" class="B-1-16" points="2786,1239 2738,1340 2859,1240" fill="Magenta" />
    <polygon id="B-4-18" class="B-4-18" points="2880,1037 2953,1038 2931,942" fill="Magenta" />
    <polygon id="B-26-18" class="B-26-18" points="2528,117 2619,94 2588,96" fill="Magenta" />
    <polygon id="B-24-18" class="B-24-18" points="2652,109 2619,95 2564,124" fill="Magenta" />
    <polygon id="B-22-18" class="B-22-18" points="2600,149 2686,143 2653,110" fill="Magenta" />
    <polygon id="B-20-18" class="B-20-18" points="2720,196 2686,144 2634,195" fill="Magenta" />
    <polygon id="B-4-1" class="B-4-1" points="341,1370 271,1293 342,1227" fill="Magenta" />
    <polygon id="B-10-1" class="B-10-1" points="356,923 297,839 365,776" fill="Magenta" />
    <polygon id="B-6-1" class="B-6-1" points="342,1225 277,1144 348,1076" fill="Magenta" />
    <polygon id="B-12-1" class="B-12-1" points="365,774 308,692 372,633" fill="Magenta" />
    <polygon id="B-8-1" class="B-8-1" points="348,1074 286,992 356,924" fill="Magenta" />
    <polygon id="B-14-1" class="B-14-1" points="372,632 314,545 374,486" fill="Magenta" />
    <polygon id="B-13-0" class="B-13-0" points="371,632 307,691 252,602 313,546" fill="#FE99FF" />
    <polygon id="B-3-0" class="B-3-0" points="340,1371 272,1425 203,1354 270,1294" fill="#FE99FF" />
    <polygon id="B-7-0" class="B-7-0" points="347,1075 276,1143 217,1061 285,993" fill="#FE99FF" />
    <polygon id="B-5-0" class="B-5-0" points="341,1226 270,1292 208,1212 276,1145" fill="#FE99FF" />
    <polygon id="B-9-0" class="B-9-0" points="228,907 296,840 355,924 285,991" fill="#FE99FF" />
    <polygon id="B-2-0" class="B-2-0" points="202,1355 197,1482 271,1425" fill="Magenta" />
    <polygon id="B-1-0" class="B-1-0" points="272,1426 198,1482 349,1486" fill="Magenta" />
    <polygon id="B-14-0" class="B-14-0" points="252,472 251,601 312,545" fill="Magenta" />
    <polygon id="B-8-0" class="B-8-0" points="285,992 228,908 216,1060" fill="Magenta" />
    <polygon id="B-10-0" class="B-10-0" points="241,753 228,906 296,839" fill="#FE99FF" />
    <polygon id="B-6-0" class="B-6-0" points="276,1144 216,1062 208,1211" fill="Magenta" />
    <polygon id="B-4-0" class="B-4-0" points="270,1293 208,1212 202,1353" fill="Magenta" />
    <polygon id="B-12-0" class="B-12-0" points="251,602 241,751 306,691" fill="#FE99FF" />
    <polygon id="B-16-0" class="B-16-0" points="246,388 252,470 310,433" fill="#FE99FF" />
    <polygon id="B-16-1" class="B-16-1" points="374,485 311,434 370,411" fill="Magenta" />
    <polygon id="B-24-1" class="B-24-1" points="345,327 281,319 337,322" fill="Magenta" />
    <polygon id="B-18-1" class="B-18-1" points="369,410 305,375 362,366" fill="Magenta" />
    <polygon id="B-22-1" class="B-22-1" points="354,340 289,326 346,327" fill="Magenta" />
    <polygon id="B-17-0" class="B-17-0" points="368,410 311,433 247,387 304,375" fill="Magenta" />
    <polygon id="B-25-0" class="B-25-0" points="214,316 270,318 334,322 278,319" fill="Magenta" />
    <polygon id="B-23-0" class="B-23-0" points="343,327 286,326 221,317 278,319" fill="Magenta" />
    <polygon id="B-21-0" class="B-21-0" points="352,340 295,342 229,324 286,326" fill="Magenta" />
    <polygon id="B-20-0" class="B-20-0" points="227,324 236,343 293,342" fill="Magenta" />
    <polygon id="B-22-0" class="B-22-0" points="284,326 219,317 227,324" fill="Magenta" />
    <polygon id="B-18-0" class="B-18-0" points="302,374 237,344 246,386" fill="Magenta" />
    <polygon id="B-3-14" class="B-3-14" points="2441,1371 2517,1371 2516,1294 2588,1318 2525,1402" fill="Magenta" />
    <polygon id="B-2-12" class="B-2-12" points="2139,1372 2226,1443 2163,1524 2074,1446" fill="#FE99FF" />
    <polygon id="B-2-3" class="B-2-3" points="675,1372 762,1434 683,1492 596,1432" fill="#FE99FF" />
    <polygon id="B-2-8" class="B-2-8" points="1522,1513 1429,1441 1500,1372 1593,1443" fill="#FE99FF" />
    <polygon id="B-2-9" class="B-2-9" points="1687,1518 1594,1443 1664,1372 1756,1445" fill="#FE99FF" />
    <polygon id="B-2-5" class="B-2-5" points="1006,1372 1096,1437 1021,1500 931,1435" fill="#FE99FF" />
    <polygon id="B-1-4" class="B-1-4" points="931,1436 853,1497 1020,1501" fill="Magenta" />
    <polygon id="B-1-5" class="B-1-5" points="1097,1438 1022,1501 1188,1505" fill="Magenta" />
    <polygon id="B-1-8" class="B-1-8" points="1594,1444 1523,1514 1686,1519" fill="Magenta" />
    <polygon id="B-1-6" class="B-1-6" points="1189,1505 1355,1509 1263,1440" fill="Magenta" />
    <polygon id="B-4-17" class="B-4-17" points="2830,1137 2760,1134 2806,1034 2878,1038" fill="#FE99FF" />
    <polygon id="B-4-16" class="B-4-16" points="2713,1234 2642,1223 2686,1125 2758,1135" fill="#FE99FF" />
    <polygon id="B-5-16" class="B-5-16" points="2686,1124 2731,1024 2805,1034 2759,1134" fill="#FE99FF" />
    <polygon id="B-6-17" class="B-6-17" points="2806,1033 2731,1023 2779,923 2855,934" fill="#FE99FF" />
    <polygon id="B-6-16" class="B-6-16" points="2652,1006 2730,1024 2686,1124 2608,1104" fill="#FE99FF" />
    <polygon id="B-11-16" class="B-11-16" points="2717,684 2668,783 2585,757 2634,661" fill="#FE99FF" />
    <polygon id="B-10-17" class="B-10-17" points="2749,804 2668,783 2718,684 2798,703" fill="#FE99FF" />
    <polygon id="B-12-17" class="B-12-17" points="2717,683 2635,660 2684,561 2767,583" fill="#FE99FF" />
    <polygon id="B-5-15" class="B-5-15" points="2565,1201 2607,1105 2685,1125 2641,1223" fill="#FE99FF" />
    <polygon id="B-4-15" class="B-4-15" points="2589,1317 2517,1293 2564,1202 2640,1224" fill="Magenta" stroke="orange" stroke-width="10" stroke-dasharray="8,3" />
    <polygon id="" class="" points="2589,1317 2517,1293 2564,1202 2640,1224" fill="none" />
    <polygon id="B-2-16" class="B-2-16" points="2713,1235 2785,1239 2737,1340 2663,1330" fill="#FE99FF" />
    <polygon id="B-5-17" class="B-5-17" points="2806,1033 2856,934 2930,942 2879,1037" fill="#FE99FF" />
    <polygon id="B-9-17" class="B-9-17" points="2750,804 2799,703 2879,721 2828,820" fill="#FE99FF" />
    <polygon id="B-13-17" class="B-13-17" points="2819,483 2768,582 2685,560 2735,464" fill="#FE99FF" />
    <polygon id="B-17-17" class="B-17-17" points="2753,273 2699,352 2613,334 2666,264" fill="#FE99FF" />
    <polygon id="B-2-15" class="B-2-15" points="2589,1318 2661,1331 2604,1422 2526,1402" fill="#FE99FF" />
    <polygon id="B-15-0" class="B-15-0" points="373,486 313,544 253,471 311,434" fill="Magenta" />
    <polygon id="B-2-1" class="B-2-1" points="341,1372 426,1432 350,1485 273,1425" fill="#FE99FF" />
    <polygon id="B-11-0" class="B-11-0" points="364,775 297,839 242,752 307,692" fill="#FE99FF" />
    <polygon id="B-20-1" class="B-20-1" points="362,365 297,342 354,340" fill="Magenta" />
    <polygon id="B-19-0" class="B-19-0" points="361,365 304,374 238,344 295,342" fill="#FE99FF" />
    <polygon id="B-24-0" class="B-24-0" points="211,316 218,317 275,319" fill="Magenta" />
    <polygon id="B-23-17" class="B-23-17" points="2651,110 2598,150 2535,157 2530,146 2562,125" fill="Magenta" />
    <polygon id="B-25-17" class="B-25-17" points="2510,125 2527,118 2618,95 2562,125 2521,133" fill="Magenta" />
    <polygon id="B-26-17" class="B-26-17" points="2506,124 2525,119 2510,125" fill="Magenta" stroke="orange" stroke-width="10" stroke-dasharray="8,3" />
    <polygon id="" class="" points="2506,124 2525,119 2510,125" fill="none" />
    <polygon id="B-22-17" class="B-22-17" points="2535,158 2597,150 2546,195" fill="Magenta" stroke="orange" stroke-width="10" stroke-dasharray="8,3" />
    <polygon id="" class="" points="2535,158 2597,150 2546,195" fill="none" />
    <polygon id="B-24-17" class="B-24-17" points="2521,134 2561,126 2529,146" fill="Magenta" stroke="orange" stroke-width="10" stroke-dasharray="8,3" />
    <polygon id="" class="" points="2521,134 2561,126 2529,146" fill="none" />
    <polygon id="B-18-17" class="B-18-17" points="2611,334 2559,326 2557,283 2579,256 2665,264" fill="Magenta" stroke="red" stroke-width="10" stroke-dasharray="10,5" />
    <polygon id="" class="" points="2611,334 2559,326 2557,283 2579,256 2665,264" fill="none" />
    <polygon id="B-20-17" class="B-20-17" points="2579,255 2555,253 2547,196 2632,196" fill="Magenta" stroke="orange" stroke-width="10" stroke-dasharray="8,3" />
    <polygon id="" class="" points="2579,255 2555,253 2547,196 2632,196" fill="none" />
    <polygon id="B-19-16" class="B-19-16" points="2578,256 2557,281 2555,254" fill="Magenta" stroke="orange" stroke-width="10" stroke-dasharray="8,3" />
    <polygon id="" class="" points="2578,256 2557,281 2555,254" fill="none" />
  </g>
  <g class="" id="shadowgaps" fill="none" stroke="grey" stroke-width="1.0" stroke-dasharray="" font-family="Arial,Helvetica,sans-serif" opacity="1.00"></g>
  <g class="" id="access" fill="none" stroke="black" stroke-width="3.0" stroke-dasharray="" font-family="Arial,Helvetica,sans-serif" opacity="1.00"></g>
  <g class="" id="gutt" fill="none" stroke="black" stroke-width="1.5" stroke-dasharray="4,3" font-family="Arial,Helvetica,sans-serif" opacity="1.00"></g>
  <g class="" id="silhou" fill="none" stroke="black" stroke-width="2.0" stroke-dasharray="" font-family="Arial,Helvetica,sans-serif" opacity="1.00">
    <polyline points="2618,95 2594,95" />
    <polyline points="2467,339 2467,1371" />
    <polyline points="2570,1477 2567,1438" />
    <polyline points="2470,1478 2570,1477" />
    <polyline points="2533,889 2527,588 2529,339" />
    <polyline points="2540,174 2539,177 2537,192" />
    <polyline points="2499,125 2527,116 2555,107 2559,105 2594,95" />
    <polyline points="2469,192 2474,163 2478,152 2482,142 2486,136 2489,131 2494,127 2499,125 2509,125 2511,126" />
    <polyline points="161,1445 198,1446" />
    <polyline points="346,328 339,323 331,322" />
    <polyline points="153,559 154,528 155,500 157,474 160,450 162,428 166,409 169,392 173,377 177,364 181,353 185,343 190,335 194,329 198,323 202,319 207,317 211,316 215,316 219,317 223,320 227,324" />
    <polyline points="331,322 215,316" />
    <polyline points="2467,267 2467,270" />
    <polyline points="2467,270 2467,274" />
    <polyline points="2467,274 2467,339" />
    <polyline points="2469,192 2469,201 2468,210 2467,219 2467,237 2467,267" />
    <polyline points="2529,339 2533,247 2535,210 2537,192" />
    <polyline points="147,706 143,863 143,916 142,1022 161,1445" />
    <polyline points="153,559 150,642 147,706" />
  </g>
  <g class="" id="legendBox" fill="none" stroke="black" stroke-width="2.0" stroke-dasharray="" font-family="Arial,Helvetica,sans-serif" opacity="1.00"></g>
  <g class="" id="text" fill="black" stroke="none" stroke-width="2.0" stroke-dasharray="" font-family="Arial,Helvetica,sans-serif" opacity="1.00"></g>
  <g class="" id="priority" fill="none" stroke="black" stroke-width="12.0" stroke-dasharray="" font-family="Arial,Helvetica,sans-serif" opacity="0.35">
    <polyline points="216,316 219,317 228,324 237,344 247,387 311,433 374,485 369,410 362,365 353,340 345,327 336,322 330,323" />
    <polyline points="2499,127 2505,124 2510,125 2521,134 2529,146 2535,158 2546,195 2598,150 2651,110 2619,95 2592,96" />
    <polyline points="310,434 246,388 252,471 251,602 241,752 228,907 216,1061 208,1212 202,1354 197,1482 350,1486 426,1432 341,1371 342,1226 347,1075 356,924 365,775 372,632 374,486 310,434" />
    <polyline points="2634,195 2686,143 2720,197 2666,263 2613,334 2700,352 2648,438 2735,463 2684,561 2635,660 2718,683 2668,784 2619,882 2700,905 2653,1006 2608,1104 2686,1124 2641,1224 2590,1317 2662,1331 2605,1422 2737,1340 2859,1239 2972,1126 2953,1038 2931,942 2906,835 2879,720 2850,602 2820,483 2787,370 2753,272 2720,197 2634,195" />
    <polyline points="2686,143 2653,110 2600,149 2686,143" />
    <polyline points="2462,1481 2525,1402 2441,1371 2517,1371 2516,1293 2518,1180 2522,1072 2528,961 2535,852 2542,741 2549,632 2555,519 2559,412 2559,326 2557,282 2555,254 2547,196 2599,150 2685,144 2633,196 2719,197 2665,263 2611,335 2699,353 2647,439 2734,463 2683,560 2634,660 2717,684 2667,784 2618,883 2699,906 2652,1005 2607,1104 2685,1125 2640,1224 2589,1318 2661,1331 2604,1422 2462,1481" />
    <polyline points="2163,1525 2314,1513 2461,1481 2524,1403 2440,1371 2291,1371 2139,1371 1984,1371 1825,1371 1664,1371 1500,1371 1336,1371 1171,1371 1006,1371 842,1371 675,1371 508,1371 342,1371 427,1432 351,1486 514,1489 683,1493 852,1496 1021,1500 1189,1505 1356,1509 1522,1514 1687,1519 1849,1523 2008,1526 2163,1525" />
  </g>
  <g class="" id="priorityTx" fill="black" stroke="none" stroke-width="2.0" stroke-dasharray="" font-family="Arial Black,Gadget,Helvetica,sans-serif" opacity="0.45">
    <text class="priority" x="2793" y="1337" text-anchor="start" font-size="42">P20c</text>
    <text class="priority" x="2318" y="1094" text-anchor="start" font-size="42">P20d</text>
    <text class="priority" x="2341" y="79" text-anchor="start" font-size="42">P20b</text>
    <text class="priority" x="1364" y="1313" text-anchor="start" font-size="42">P23</text>
    <text class="priority" x="367" y="937" text-anchor="start" font-size="42">P16</text>
    <text class="priority" x="164" y="284" text-anchor="start" font-size="42">P15</text>
  </g>
  <g class="hover" id="posts" fill="white" stroke="blue" stroke-width="3.0" stroke-dasharray="" font-family="Arial,Helvetica,sans-serif" opacity="1.00">
    <circle id="P-B-1-11" class="P-B-1-11" cx="363" cy="776" r="7" />
    <circle id="P-B-1-3" class="P-B-1-3" cx="336" cy="1374" r="7" />
    <circle id="P-B-1-13" class="P-B-1-13" cx="370" cy="633" r="7" />
    <circle id="P-B-1-15" class="P-B-1-15" cx="372" cy="485" r="7" />
    <circle id="P-B-17-4" class="P-B-17-4" cx="2881" cy="1039" r="7" />
    <circle id="P-B-17-3" class="P-B-17-3" cx="2832" cy="1138" r="7" />
    <circle id="P-B-17-2" class="P-B-17-2" cx="2902" cy="1136" r="7" />
    <circle id="P-B-0-4" class="P-B-0-4" cx="271" cy="1293" r="7" />
    <circle id="P-B-0-2" class="P-B-0-2" cx="271" cy="1425" r="7" />
    <circle id="P-B-18-3" class="P-B-18-3" cx="2924" cy="1090" r="7" />
    <circle id="P-B-17-1" class="P-B-17-1" cx="2926" cy="1132" r="7" />
    <circle id="P-B-1-7" class="P-B-1-7" cx="344" cy="1076" r="7" />
    <circle id="P-B-16-17" class="P-B-16-17" cx="2562" cy="326" r="7" />
    <circle id="P-B-14-5" class="P-B-14-5" cx="2523" cy="1181" r="7" />
    <circle id="P-B-16-19" class="P-B-16-19" cx="2560" cy="281" r="7" />
    <circle id="P-B-15-9" class="P-B-15-9" cx="2533" cy="962" r="7" />
    <circle id="P-B-16-19-17" class="P-B-16-19-17" cx="2558" cy="252" r="7" />
    <circle id="P-B-15-11" class="P-B-15-11" cx="2547" cy="742" r="7" />
    <circle id="P-B-16-15" class="P-B-16-15" cx="2559" cy="520" r="7" />
    <circle id="P-B-17-23" class="P-B-17-23" cx="2538" cy="153" r="7" />
    <circle id="P-B-18-23" class="P-B-18-23" cx="2532" cy="141" r="7" />
    <circle id="P-B-15-7" class="P-B-15-7" cx="2527" cy="1073" r="7" />
    <circle id="P-B-1-5" class="P-B-1-5" cx="338" cy="1226" r="7" />
    <circle id="P-B-17-25" class="P-B-17-25" cx="2523" cy="128" r="7" />
    <circle id="P-B-18-25" class="P-B-18-25" cx="2512" cy="120" r="7" />
    <circle id="P-B-2-3" class="P-B-2-3" cx="508" cy="1374" r="7" />
    <circle id="P-B-1-9" class="P-B-1-9" cx="353" cy="924" r="7" />
    <circle id="P-B-4-3" class="P-B-4-3" cx="841" cy="1375" r="7" />
    <circle id="P-B-10-3" class="P-B-10-3" cx="1825" cy="1375" r="7" />
    <circle id="P-B-3-3" class="P-B-3-3" cx="675" cy="1374" r="7" />
    <circle id="P-B-5-3" class="P-B-5-3" cx="1006" cy="1375" r="7" />
    <circle id="P-B-11-3" class="P-B-11-3" cx="1984" cy="1375" r="7" />
    <circle id="P-B-12-3" class="P-B-12-3" cx="2140" cy="1374" r="7" />
    <circle id="P-B-6-3" class="P-B-6-3" cx="1170" cy="1375" r="7" />
    <circle id="P-B-17-21" class="P-B-17-21" cx="2550" cy="193" r="7" />
    <circle id="P-B-13-3" class="P-B-13-3" cx="2292" cy="1374" r="7" />
    <circle id="P-B-16-16" class="P-B-16-16" cx="2562" cy="412" r="7" />
    <circle id="P-B-1-19" class="P-B-1-19" cx="360" cy="363" r="7" />
    <circle id="P-B-14-3" class="P-B-14-3" cx="2441" cy="1374" r="7" />
    <circle id="P-B-7-3" class="P-B-7-3" cx="1335" cy="1375" r="7" />
    <circle id="P-B-14-4" class="P-B-14-4" cx="2521" cy="1293" r="7" />
    <circle id="P-B-16-13" class="P-B-16-13" cx="2553" cy="633" r="7" />
    <circle id="P-B-15-10" class="P-B-15-10" cx="2540" cy="853" r="7" />
    <circle id="P-B-8-3" class="P-B-8-3" cx="1500" cy="1375" r="7" />
    <circle id="P-B-1-21" class="P-B-1-21" cx="351" cy="336" r="7" />
    <circle id="P-B-9-3" class="P-B-9-3" cx="1663" cy="1375" r="7" />
    <circle id="P-B-1-23" class="P-B-1-23" cx="342" cy="323" r="7" />
    <circle id="P-B-1-17" class="P-B-1-17" cx="367" cy="409" r="7" />
    <circle id="P-B-0-16" class="P-B-0-16" cx="313" cy="432" r="7" />
    <circle id="P-B-0-18" class="P-B-0-18" cx="305" cy="372" r="7" />
    <circle id="P-B-0-14" class="P-B-0-14" cx="315" cy="545" r="7" />
    <circle id="P-B-0-24" class="P-B-0-24" cx="278" cy="314" r="7" />
    <circle id="P-B-0-22" class="P-B-0-22" cx="287" cy="322" r="7" />
    <circle id="P-B-0-20" class="P-B-0-20" cx="296" cy="339" r="7" />
    <circle id="P-B-17-19" class="P-B-17-19" cx="2579" cy="254" r="7" />
    <circle id="P-B-17-20" class="P-B-17-20" cx="2632" cy="194" r="7" />
    <circle id="P-B-17-18" class="P-B-17-18" cx="2665" cy="263" r="7" />
    <circle id="P-B-17-22" class="P-B-17-22" cx="2598" cy="147" r="7" />
    <circle id="P-B-17-24" class="P-B-17-24" cx="2561" cy="121" r="7" />
    <circle id="P-B-16-4" class="P-B-16-4" cx="2761" cy="1135" r="7" />
    <circle id="P-B-17-5" class="P-B-17-5" cx="2808" cy="1035" r="7" />
    <circle id="P-B-15-4" class="P-B-15-4" cx="2643" cy="1224" r="7" />
    <circle id="P-B-16-3" class="P-B-16-3" cx="2715" cy="1235" r="7" />
    <circle id="P-B-16-5" class="P-B-16-5" cx="2688" cy="1125" r="7" />
    <circle id="P-B-15-3" class="P-B-15-3" cx="2591" cy="1318" r="7" />
    <circle id="P-B-15-5" class="P-B-15-5" cx="2566" cy="1201" r="7" />
    <circle id="P-B-12-2" class="P-B-12-2" cx="2227" cy="1442" r="7" />
    <circle id="P-B-11-2" class="P-B-11-2" cx="2074" cy="1446" r="7" />
    <circle id="P-B-13-2" class="P-B-13-2" cx="2377" cy="1435" r="7" />
    <circle id="P-B-16-6" class="P-B-16-6" cx="2733" cy="1024" r="7" />
    <circle id="P-B-17-6" class="P-B-17-6" cx="2857" cy="935" r="7" />
    <circle id="P-B-17-7" class="P-B-17-7" cx="2780" cy="923" r="7" />
    <circle id="P-B-16-7" class="P-B-16-7" cx="2654" cy="1006" r="7" />
    <circle id="P-B-16-8" class="P-B-16-8" cx="2701" cy="907" r="7" />
    <circle id="P-B-15-6" class="P-B-15-6" cx="2609" cy="1105" r="7" />
    <circle id="P-B-16-2" class="P-B-16-2" cx="2788" cy="1239" r="7" />
    <circle id="P-B-15-2" class="P-B-15-2" cx="2664" cy="1331" r="7" />
    <circle id="P-B-17-8" class="P-B-17-8" cx="2830" cy="822" r="7" />
    <circle id="P-B-16-11" class="P-B-16-11" cx="2586" cy="758" r="7" />
    <circle id="P-B-16-10" class="P-B-16-10" cx="2669" cy="785" r="7" />
    <circle id="P-B-17-11" class="P-B-17-11" cx="2719" cy="684" r="7" />
    <circle id="P-B-16-12" class="P-B-16-12" cx="2635" cy="661" r="7" />
    <circle id="P-B-16-9" class="P-B-16-9" cx="2620" cy="884" r="7" />
    <circle id="P-B-17-9" class="P-B-17-9" cx="2750" cy="806" r="7" />
    <circle id="P-B-17-10" class="P-B-17-10" cx="2800" cy="704" r="7" />
    <circle id="P-B-17-12" class="P-B-17-12" cx="2769" cy="584" r="7" />
    <circle id="P-B-17-13" class="P-B-17-13" cx="2684" cy="562" r="7" />
    <circle id="P-B-16-14" class="P-B-16-14" cx="2598" cy="534" r="7" />
    <circle id="P-B-0-12" class="P-B-0-12" cx="309" cy="692" r="7" />
    <circle id="P-B-17-14" class="P-B-17-14" cx="2735" cy="464" r="7" />
    <circle id="P-B-17-15" class="P-B-17-15" cx="2647" cy="439" r="7" />
    <circle id="P-B-17-16" class="P-B-17-16" cx="2699" cy="353" r="7" />
    <circle id="P-B-17-17" class="P-B-17-17" cx="2611" cy="334" r="7" />
    <circle id="P-B-15-8" class="P-B-15-8" cx="2571" cy="980" r="7" />
    <circle id="P-B-6-2" class="P-B-6-2" cx="1262" cy="1439" r="7" />
    <circle id="P-B-5-2" class="P-B-5-2" cx="1096" cy="1437" r="7" />
    <circle id="P-B-7-2" class="P-B-7-2" cx="1428" cy="1441" r="7" />
    <circle id="P-B-8-2" class="P-B-8-2" cx="1593" cy="1443" r="7" />
    <circle id="P-B-9-2" class="P-B-9-2" cx="1756" cy="1445" r="7" />
    <circle id="P-B-4-2" class="P-B-4-2" cx="930" cy="1435" r="7" />
    <circle id="P-B-3-2" class="P-B-3-2" cx="763" cy="1434" r="7" />
    <circle id="P-B-2-2" class="P-B-2-2" cx="595" cy="1432" r="7" />
    <circle id="P-B-0-10" class="P-B-0-10" cx="298" cy="840" r="7" />
    <circle id="P-B-1-2" class="P-B-1-2" cx="426" cy="1432" r="7" />
    <circle id="P-B-0-6" class="P-B-0-6" cx="277" cy="1145" r="7" />
    <circle id="P-B-0-8" class="P-B-0-8" cx="286" cy="993" r="7" />
    <circle id="P-B-14-2" class="P-B-14-2" cx="2526" cy="1402" r="7" />
    <circle id="P-B-10-2" class="P-B-10-2" cx="1917" cy="1446" r="7" />
    <circle id="P-B-19-20" class="P-B-19-20" cx="2662" cy="163" r="7" />
    <circle id="P-B-13-1" class="P-B-13-1" cx="2427" cy="1461" r="7" />
    <circle id="P-B-1-1" class="P-B-1-1" cx="465" cy="1457" r="7" />
    <circle id="P-B-18-20" class="P-B-18-20" cx="2678" cy="195" r="7" />
    <circle id="P-B-18-14" class="P-B-18-14" cx="2772" cy="473" r="7" />
    <circle id="P-B-4-2-4" class="P-B-4-2-4" cx="886" cy="1470" r="7" />
    <circle id="P-B-9-1" class="P-B-9-1" cx="1715" cy="1489" r="7" />
    <circle id="P-B-17-23-18" class="P-B-17-23-18" cx="2618" cy="111" r="7" />
    <circle id="P-B-18-6" class="P-B-18-6" cx="2881" cy="888" r="7" />
    <circle id="P-B-14-2-14" class="P-B-14-2-14" cx="2495" cy="1440" r="7" />
    <circle id="P-B-0-21" class="P-B-0-21" cx="256" cy="327" r="7" />
    <circle id="P-B-19-10" class="P-B-19-10" cx="2827" cy="652" r="7" />
    <circle id="P-B-0-3-0" class="P-B-0-3-0" cx="238" cy="1390" r="7" />
    <circle id="P-B-2-1" class="P-B-2-1" cx="556" cy="1459" r="7" />
    <circle id="P-B-0-2-0" class="P-B-0-2-0" cx="248" cy="1443" r="7" />
    <circle id="P-B-12-2-11" class="P-B-12-2-11" cx="2130" cy="1495" r="7" />
    <circle id="P-B-10-1-11" class="P-B-10-1-11" cx="1972" cy="1494" r="7" />
    <circle id="P-B-1-12" class="P-B-1-12" cx="271" cy="727" r="7" />
    <circle id="P-B-8-1" class="P-B-8-1" cx="1480" cy="1481" r="7" />
    <circle id="P-B-0-15" class="P-B-0-15" cx="284" cy="506" r="7" />
    <circle id="P-B-5-2-4" class="P-B-5-2-4" cx="979" cy="1470" r="7" />
    <circle id="P-B-0-19-0" class="P-B-0-19-0" cx="266" cy="353" r="7" />
    <circle id="P-B-0-17-0" class="P-B-0-17-0" cx="279" cy="406" r="7" />
    <circle id="P-B-18-19" class="P-B-18-19" cx="2692" cy="229" r="7" />
    <circle id="P-B-0-7" class="P-B-0-7" cx="250" cy="1029" r="7" />
    <circle id="P-B-18-13" class="P-B-18-13" cx="2794" cy="535" r="7" />
    <circle id="P-B-18-7" class="P-B-18-7" cx="2867" cy="829" r="7" />
    <circle id="P-B-0-5" class="P-B-0-5" cx="243" cy="1178" r="7" />
    <circle id="P-B-1-4" class="P-B-1-4" cx="239" cy="1252" r="7" />
    <circle id="P-B-12-2-12" class="P-B-12-2-12" cx="2187" cy="1494" r="7" />
    <circle id="P-B-18-8" class="P-B-18-8" cx="2856" cy="771" r="7" />
    <circle id="P-B-18-12" class="P-B-18-12" cx="2806" cy="593" r="7" />
    <circle id="P-B-18-15" class="P-B-18-15" cx="2758" cy="424" r="7" />
    <circle id="P-B-16-2-16" class="P-B-16-2-16" cx="2770" cy="1275" r="7" />
    <circle id="P-B-0-23" class="P-B-0-23" cx="248" cy="316" r="7" />
    <circle id="P-B-0-3" class="P-B-0-3" cx="244" cy="1317" r="7" />
    <circle id="P-B-15-1" class="P-B-15-1" cx="2694" cy="1334" r="7" />
    <circle id="P-B-0-19" class="P-B-0-19" cx="267" cy="340" r="7" />
    <circle id="P-B-0-25-0" class="P-B-0-25-0" cx="241" cy="312" r="7" />
    <circle id="P-B-0-11" class="P-B-0-11" cx="266" cy="790" r="7" />
    <circle id="P-B-0-17" class="P-B-0-17" cx="277" cy="378" r="7" />
    <circle id="P-B-18-24" class="P-B-18-24" cx="2597" cy="101" r="7" />
    <circle id="P-B-8-1-9" class="P-B-8-1-9" cx="1649" cy="1488" r="7" />
    <circle id="P-B-5-1" class="P-B-5-1" cx="1051" cy="1475" r="7" />
    <circle id="P-B-6-1" class="P-B-6-1" cx="1217" cy="1479" r="7" />
    <circle id="P-B-1-22" class="P-B-1-22" cx="258" cy="321" r="7" />
    <circle id="P-B-10-1" class="P-B-10-1" cx="1876" cy="1493" r="7" />
    <circle id="P-B-18-22" class="P-B-18-22" cx="2630" cy="121" r="7" />
    <circle id="P-B-17-15-18" class="P-B-17-15-18" cx="2738" cy="361" r="7" />
    <circle id="P-B-3-1" class="P-B-3-1" cx="809" cy="1466" r="7" />
    <circle id="P-B-1-2-1" class="P-B-1-2-1" cx="401" cy="1450" r="7" />
    <circle id="P-B-4-1" class="P-B-4-1" cx="723" cy="1463" r="7" />
    <circle id="P-B-6-2-5" class="P-B-6-2-5" cx="1147" cy="1475" r="7" />
    <circle id="P-B-18-26" class="P-B-18-26" cx="2590" cy="97" r="7" />
    <circle id="P-B-1-16" class="P-B-1-16" cx="285" cy="450" r="7" />
    <circle id="P-B-15-2-15" class="P-B-15-2-15" cx="2639" cy="1370" r="7" />
    <circle id="P-B-0-13-0" class="P-B-0-13-0" cx="282" cy="576" r="7" />
    <circle id="P-B-18-5" class="P-B-18-5" cx="2888" cy="938" r="7" />
    <circle id="P-B-3-2-2" class="P-B-3-2-2" cx="641" cy="1464" r="7" />
    <circle id="P-B-0-9" class="P-B-0-9" cx="252" cy="942" r="7" />
    <circle id="P-B-18-16" class="P-B-18-16" cx="2727" cy="312" r="7" />
    <circle id="P-B-19-4" class="P-B-19-4" cx="2909" cy="1040" r="7" />
    <circle id="P-B-8-2-8" class="P-B-8-2-8" cx="1550" cy="1486" r="7" />
    <circle id="P-B-14-1" class="P-B-14-1" cx="2563" cy="1411" r="7" />
    <circle id="P-B-18-21" class="P-B-18-21" cx="2648" cy="143" r="7" />
    <circle id="P-B-16-1" class="P-B-16-1" cx="2811" cy="1239" r="7" />
    <circle id="P-B-18-10" class="P-B-18-10" cx="2839" cy="713" r="7" />
    <circle id="P-B-18-18" class="P-B-18-18" cx="2706" cy="267" r="7" />
    <circle id="P-B-0-13" class="P-B-0-13" cx="280" cy="646" r="7" />
    <circle id="P-B-7-1" class="P-B-7-1" cx="1383" cy="1483" r="7" />
    <circle id="P-B-11-1" class="P-B-11-1" cx="2033" cy="1495" r="7" />
    <circle id="P-B-10-2-9" class="P-B-10-2-9" cx="1811" cy="1491" r="7" />
    <circle id="P-B-12-1" class="P-B-12-1" cx="2279" cy="1484" r="7" />
    <circle id="P-B-1-24" class="P-B-1-24" cx="251" cy="314" r="7" />
    <circle id="P-B-0-1" class="P-B-0-1" cx="299" cy="1447" r="7" />
    <circle id="P-B-18-4" class="P-B-18-4" cx="2902" cy="1000" r="7" />
    <circle id="P-B-0-7-0" class="P-B-0-7-0" cx="242" cy="1097" r="7" />
    <circle id="P-B-13-2-13" class="P-B-13-2-13" cx="2342" cy="1479" r="7" />
    <circle id="P-B-6-1-7" class="P-B-6-1-7" cx="1315" cy="1478" r="7" />
    <circle id="P-B-1-10" class="P-B-1-10" cx="258" cy="880" r="7" />
    <circle id="P-B-18-2" class="P-B-18-2" cx="2886" cy="1175" r="7" />
  </g>
  <g class="hover" id="postsM" fill="white" stroke="green" stroke-width="5.0" stroke-dasharray="" font-family="Arial,Helvetica,sans-serif" opacity="1.00"></g>
  <g class="hover" id="postsL" fill="white" stroke="red" stroke-width="5.0" stroke-dasharray="" font-family="Arial,Helvetica,sans-serif" opacity="1.00"></g>
  <polygon id="highlightPolygon" class="highlightPolygon" points="1,1 3,8 1,8 2,6" visibility="hidden" fill="none" opacity="0.35" stroke="yellow" stroke-width="10" />
  <rect id="tooltipBg" class="tooltipBg" x="0" y="0" rx="9" ry="9" width="55" height="17" visibility="hidden" />
  <text id="tooltipTx" class="tooltipTx" x="0" y="0" visibility="hidden">Tooltip</text>
</svg>